<svg xmlns="http://www.w3.org/2000/svg" xmlns:xlink="http://www.w3.org/1999/xlink" width="794" zoomAndPan="magnify" viewBox="0 0 595.5 842.249979" height="1123" preserveAspectRatio="xMidYMid meet" version="1.2"><defs><clipPath id="85b6431447"><path d="M 78 60 L 516 60 L 516 841.5 L 78 841.5 Z M 78 60 "/></clipPath></defs><g id="8baad9c805"><path style=" stroke:none;fill-rule:evenodd;fill:#fbfee5;fill-opacity:1;" d="M 300.355469 99.640625 C 298.25 99.847656 295.972656 100.378906 295.296875 100.820312 C 294.625 101.261719 293.453125 101.621094 292.695312 101.625 C 290.9375 101.625 287.429688 103.703125 288.714844 103.980469 C 289.382812 104.125 289.46875 104.375 289.097656 105.066406 C 288.835938 105.558594 288.261719 106.097656 287.824219 106.265625 C 287.164062 106.519531 287.082031 106.320312 287.355469 105.085938 C 288.058594 101.878906 285.230469 104.453125 283.75 108.367188 C 283.222656 109.765625 282.402344 111.4375 281.925781 112.082031 C 281.066406 113.246094 281.058594 113.234375 281.339844 110.78125 L 281.621094 108.304688 L 280.421875 110.535156 C 278.511719 114.078125 271.261719 132.957031 271.261719 134.386719 C 271.261719 135.257812 272.640625 134.730469 273.777344 133.421875 C 277.449219 129.207031 278.910156 126.878906 282.304688 119.847656 C 284.425781 115.449219 286.46875 111.867188 287.019531 111.570312 C 287.554688 111.285156 288.628906 110.046875 289.40625 108.816406 C 290.179688 107.589844 291.097656 106.476562 291.4375 106.347656 C 292.695312 105.863281 291.988281 107.085938 289.390625 109.894531 C 287.410156 112.03125 286.09375 114.179688 284.285156 118.214844 C 280.820312 125.953125 278.238281 130.148438 274.378906 134.304688 C 271.570312 137.328125 266.621094 141.230469 265.589844 141.230469 C 265.441406 141.230469 265.308594 140.394531 265.296875 139.375 C 265.261719 136.261719 264.539062 133.492188 263.460938 132.335938 C 262.4375 131.238281 262.433594 131.238281 261.894531 132.238281 C 261.601562 132.792969 261.359375 133.6875 261.359375 134.226562 C 261.359375 134.765625 261.105469 135.292969 260.796875 135.394531 C 260.457031 135.507812 260.375 136.011719 260.585938 136.679688 C 260.777344 137.285156 261.140625 137.652344 261.394531 137.496094 C 262.117188 137.050781 261.929688 138.464844 261.125 139.527344 C 260.726562 140.054688 260.390625 141.171875 260.382812 142.007812 C 260.367188 143.667969 259.039062 148.03125 258.246094 149.042969 C 256.757812 150.9375 259.648438 149.828125 262.066406 147.574219 C 263.660156 146.09375 266.671875 145.503906 269.527344 146.117188 C 270.890625 146.410156 275.125 146.617188 278.9375 146.574219 C 285.257812 146.507812 286.195312 146.617188 289.582031 147.804688 C 294.492188 149.527344 297.566406 152.699219 298.476562 156.988281 C 298.804688 158.546875 299 160.484375 298.910156 161.292969 C 298.753906 162.671875 298.589844 162.777344 296.398438 162.917969 C 294.222656 163.058594 293.882812 162.910156 291.695312 160.878906 C 289.222656 158.589844 286.710938 157.074219 285.378906 157.074219 C 284.945312 157.074219 283.695312 156.617188 282.601562 156.0625 C 279.882812 154.671875 274.960938 154.683594 270.605469 156.09375 C 268.789062 156.679688 267.300781 157.363281 267.300781 157.613281 C 267.300781 157.863281 267.054688 158.066406 266.757812 158.066406 C 266.460938 158.066406 265.675781 158.492188 265.011719 159.015625 C 264.347656 159.535156 262.898438 160.117188 261.785156 160.304688 C 258.679688 160.828125 256.816406 163.0625 256.148438 167.058594 C 255.953125 168.238281 255.539062 169.363281 255.238281 169.554688 C 254.835938 169.808594 254.859375 170.082031 255.3125 170.539062 C 255.824219 171.050781 256 170.960938 256.234375 170.066406 C 256.476562 169.128906 256.785156 168.996094 258.277344 169.179688 C 259.628906 169.347656 260.503906 169.074219 262.058594 167.996094 C 263.171875 167.226562 265.265625 166.1875 266.710938 165.6875 C 268.972656 164.90625 269.398438 164.878906 269.78125 165.496094 C 270.125 166.054688 271.730469 166.242188 277.015625 166.351562 C 280.753906 166.425781 283.917969 166.597656 284.054688 166.730469 C 284.191406 166.867188 284.6875 166.976562 285.164062 166.976562 C 285.636719 166.976562 287.15625 167.5625 288.539062 168.28125 C 290.734375 169.421875 291.015625 169.734375 290.753906 170.777344 C 290.558594 171.550781 290.753906 172.296875 291.304688 172.90625 C 292.40625 174.125 291.808594 175.066406 290.140625 174.734375 C 285.390625 173.789062 284.136719 173.304688 284.136719 172.414062 C 284.136719 171.042969 283.273438 170.765625 282.644531 171.9375 C 282.152344 172.859375 281.707031 172.953125 278.289062 172.835938 C 272.894531 172.65625 265.539062 172.972656 264.820312 173.414062 C 263.25 174.386719 276.007812 176.8125 279.367188 176.179688 C 281.265625 175.824219 284.234375 176.316406 283.859375 176.925781 C 283.714844 177.160156 282.660156 177.601562 281.515625 177.914062 C 276.207031 179.355469 265.085938 177.558594 262.347656 174.820312 L 260.921875 173.394531 L 255.414062 173.644531 C 252.386719 173.78125 249.632812 174.0625 249.292969 174.273438 C 248.957031 174.480469 248.269531 175.542969 247.765625 176.632812 C 247.261719 177.722656 246.699219 178.722656 246.515625 178.859375 C 246.195312 179.09375 245.652344 182.738281 244.378906 193.21875 C 243.640625 199.285156 243.6875 210.898438 244.453125 211.664062 C 244.761719 211.976562 245.019531 213.167969 245.019531 214.3125 C 245.019531 215.457031 245.460938 218.585938 246.003906 221.269531 C 246.546875 223.949219 246.992188 226.9375 246.996094 227.90625 C 246.996094 228.875 247.328125 230.101562 247.726562 230.628906 C 248.125 231.15625 248.460938 231.945312 248.46875 232.378906 C 248.484375 233.078125 248.917969 233.738281 250.949219 236.148438 C 251.230469 236.476562 251.457031 237.050781 251.457031 237.425781 C 251.457031 237.796875 252.011719 238.625 252.691406 239.265625 C 253.375 239.902344 253.929688 240.710938 253.929688 241.054688 C 253.929688 241.402344 254.324219 241.976562 254.804688 242.332031 C 255.691406 242.988281 256.132812 243.570312 259.0625 247.929688 C 259.976562 249.289062 264.046875 253.59375 268.101562 257.492188 C 277.488281 266.511719 281.179688 268.726562 287.601562 269.207031 C 289.917969 269.378906 293.371094 269.730469 295.277344 269.984375 C 297.183594 270.242188 299.746094 270.566406 300.96875 270.707031 C 303.058594 270.945312 305.765625 271.503906 313.210938 273.242188 C 317.140625 274.160156 320.585938 273.75 324.613281 271.886719 C 326.316406 271.101562 327.945312 270.457031 328.234375 270.457031 C 328.519531 270.457031 329.753906 269.898438 330.972656 269.21875 C 332.191406 268.539062 333.414062 267.980469 333.6875 267.980469 C 333.960938 267.980469 335.589844 267.324219 337.300781 266.523438 C 339.851562 265.332031 341.355469 264.054688 345.617188 259.46875 C 352.230469 252.351562 354.15625 250.152344 354.847656 248.917969 C 355.367188 247.996094 355.40625 248.023438 355.421875 249.289062 C 355.429688 250.039062 355.214844 250.652344 354.941406 250.652344 C 354.667969 250.652344 354.445312 251.214844 354.445312 251.90625 C 354.445312 252.59375 354.160156 253.269531 353.8125 253.402344 C 353.460938 253.535156 352.628906 254.644531 351.964844 255.863281 C 351.296875 257.082031 350.585938 258.078125 350.382812 258.078125 C 350.183594 258.078125 349.65625 258.800781 349.21875 259.6875 L 348.421875 261.296875 L 350.085938 259.5625 C 353.320312 256.191406 358.441406 247.136719 360.371094 241.378906 C 362.28125 235.671875 365.199219 220.535156 364.914062 217.796875 C 364.832031 217.019531 365.144531 212.472656 365.609375 207.6875 C 366.101562 202.59375 366.300781 197.949219 366.097656 196.476562 C 365.902344 195.09375 365.765625 193.449219 365.785156 192.820312 C 365.808594 192.183594 365.609375 191.8125 365.335938 191.984375 C 365.066406 192.148438 364.84375 192.105469 364.839844 191.886719 C 364.820312 189.488281 363.648438 184.996094 362.910156 184.480469 C 362.304688 184.058594 361.921875 182.953125 361.726562 181.054688 C 361.175781 175.714844 360.035156 173.550781 356.035156 170.261719 C 352.773438 167.582031 350.53125 166.421875 345.171875 164.632812 C 343.242188 163.988281 337.273438 164.136719 334 164.910156 C 331.78125 165.433594 327.738281 168.164062 327.71875 169.152344 C 327.703125 169.859375 326.066406 170.90625 324.945312 170.921875 C 324.113281 170.933594 323.808594 170.464844 323.335938 168.425781 C 322.125 163.167969 322.335938 162.601562 327.550781 157.222656 C 330.308594 154.375 330.878906 154.019531 333.292969 153.625 C 336.367188 153.125 340.539062 153.59375 346.214844 155.070312 C 348.359375 155.628906 350.535156 156.085938 351.050781 156.085938 C 351.5625 156.085938 352.371094 156.269531 352.84375 156.5 C 357.570312 158.777344 357.609375 158.808594 359.433594 162.199219 C 360.4375 164.0625 361.394531 165.375 361.554688 165.113281 C 361.957031 164.464844 361.820312 160.90625 361.371094 160.292969 C 361.070312 159.882812 360.375 152.636719 360.335938 149.523438 C 360.332031 149.050781 360.039062 147.265625 359.683594 145.5625 C 359.273438 143.585938 359.203125 142.039062 359.484375 141.277344 C 359.976562 139.953125 359.769531 137.902344 359 136.460938 C 358.277344 135.113281 356.597656 129.902344 356.230469 127.863281 C 355.84375 125.734375 353.957031 122.898438 349.882812 118.335938 C 345.441406 113.355469 344.515625 112.515625 343.480469 112.515625 C 342.375 112.515625 342.378906 112.453125 343.3125 114.683594 C 344.304688 117.058594 343.351562 117.007812 342.128906 114.617188 C 341.121094 112.652344 335.402344 107.277344 331.667969 104.792969 C 329.824219 103.566406 323.363281 100.632812 322.503906 100.632812 C 322.371094 100.632812 322.261719 101.078125 322.261719 101.621094 C 322.261719 102.816406 321.707031 102.863281 319.707031 101.828125 C 318.875 101.398438 315.558594 100.738281 312.34375 100.363281 C 309.125 99.988281 305.972656 99.585938 305.339844 99.472656 C 304.707031 99.359375 302.464844 99.4375 300.355469 99.640625 M 273.3125 107.914062 C 271.734375 111.042969 270.507812 115.980469 271.921875 113.503906 C 273.085938 111.476562 275.339844 105.535156 275.054688 105.25 C 274.910156 105.105469 274.128906 106.304688 273.3125 107.914062 M 273.058594 121.097656 C 272.0625 123.488281 271.652344 124.890625 271.953125 124.890625 C 272.382812 124.890625 273.371094 122.808594 273.761719 121.066406 C 274.230469 118.984375 273.9375 119 273.058594 121.097656 M 263.65625 127.636719 C 262.90625 129.832031 263 131.328125 263.886719 131.328125 C 264.128906 131.328125 264.328125 131.105469 264.328125 130.832031 C 264.328125 130.5625 264.105469 130.339844 263.835938 130.339844 C 263.5625 130.339844 263.339844 130.101562 263.339844 129.8125 C 263.339844 129.527344 263.523438 129.40625 263.75 129.542969 C 263.980469 129.683594 264.167969 129.53125 264.171875 129.203125 C 264.175781 128.875 264.34375 127.882812 264.542969 126.996094 C 265.070312 124.652344 264.542969 125.027344 263.65625 127.636719 M 331.667969 173.46875 C 330.257812 174.027344 325.726562 178.3125 325.726562 179.089844 C 325.726562 179.40625 327.96875 179.652344 331.628906 179.734375 C 336.769531 179.847656 337.996094 180.050781 341.160156 181.289062 C 343.15625 182.070312 346.402344 182.960938 348.371094 183.265625 C 350.339844 183.570312 352.792969 184.242188 353.820312 184.761719 C 356.523438 186.132812 360.527344 186.570312 361.34375 185.585938 C 361.875 184.945312 361.851562 184.761719 361.210938 184.515625 C 360.785156 184.351562 360.25 184.335938 360.019531 184.476562 C 359.792969 184.617188 358.386719 184.074219 356.902344 183.273438 C 355.414062 182.472656 353.511719 181.5 352.675781 181.109375 C 351.835938 180.71875 350.871094 180.070312 350.535156 179.664062 C 349.679688 178.632812 342.925781 175.890625 341.234375 175.886719 C 339.019531 175.882812 336.351562 174.980469 335.378906 173.90625 C 334.402344 172.824219 333.554688 172.726562 331.667969 173.46875 M 330.679688 183.558594 C 330.679688 184.011719 337.359375 187.117188 339.703125 187.753906 C 342.003906 188.378906 344.800781 188.28125 350.355469 187.382812 C 351.78125 187.148438 353.078125 186.832031 353.238281 186.671875 C 353.875 186.03125 350.40625 185.757812 348.839844 186.320312 C 347.058594 186.96875 343.113281 186.261719 337.164062 184.230469 C 334.714844 183.394531 330.679688 182.976562 330.679688 183.558594 M 225.554688 195.0625 C 224.789062 195.175781 224.046875 195.644531 223.90625 196.101562 C 223.765625 196.558594 223.324219 197.539062 222.921875 198.285156 C 222.359375 199.335938 222.320312 199.871094 222.757812 200.6875 C 223.070312 201.265625 223.191406 202.441406 223.035156 203.296875 C 222.664062 205.300781 223.527344 217.378906 224.230469 219.980469 C 224.523438 221.078125 225.441406 222.6875 226.269531 223.5625 C 227.097656 224.4375 227.667969 224.929688 227.539062 224.660156 C 226.980469 223.46875 226.722656 216.617188 227.1875 215.25 L 227.6875 213.765625 L 227.441406 215.441406 C 227.070312 217.929688 228.03125 220.792969 229.917969 222.839844 C 231.441406 224.492188 231.691406 224.597656 232.660156 224.003906 C 234.136719 223.097656 234.34375 223.539062 233.351562 225.480469 C 232.222656 227.679688 231.636719 227.980469 230.246094 227.070312 C 229.121094 226.335938 229.09375 226.347656 229.433594 227.464844 C 229.628906 228.097656 230.066406 228.953125 230.410156 229.363281 C 230.753906 229.769531 231.40625 230.839844 231.863281 231.734375 C 232.921875 233.828125 234.667969 234.675781 236.339844 233.914062 C 237.984375 233.164062 238.375 231.296875 237.398438 228.855469 C 236.960938 227.761719 236.601562 226.371094 236.601562 225.761719 C 236.601562 225.15625 235.941406 223.320312 235.136719 221.6875 C 234.070312 219.519531 233.589844 217.679688 233.359375 214.867188 C 233.105469 211.722656 232.8125 210.734375 231.769531 209.496094 C 230.753906 208.289062 230.222656 208.035156 229.152344 208.25 C 227.902344 208.5 227.785156 208.375 227.488281 206.53125 C 227.226562 204.878906 226.894531 204.429688 225.515625 203.855469 C 222.394531 202.550781 222.992188 197.984375 226.503906 196.3125 C 227.425781 195.871094 228.183594 195.328125 228.183594 195.105469 C 228.183594 194.695312 228.003906 194.691406 225.554688 195.0625 M 299.980469 200.675781 C 295.617188 202.152344 293.121094 202.644531 289.835938 202.679688 C 286.308594 202.714844 286.117188 202.777344 286.117188 203.84375 C 286.117188 205.140625 287.683594 207.3125 289.25 208.179688 C 289.839844 208.507812 293.222656 208.929688 296.761719 209.113281 C 302.113281 209.390625 303.699219 209.664062 306.167969 210.730469 C 308.292969 211.644531 310.023438 212.011719 312.230469 212.019531 C 314.273438 212.027344 316.886719 212.535156 319.953125 213.519531 C 322.503906 214.335938 324.902344 215.003906 325.285156 215.003906 C 326.242188 215.003906 328.699219 211.816406 328.699219 210.574219 C 328.699219 209.839844 328.378906 209.558594 327.546875 209.558594 C 326.914062 209.558594 325.078125 208.535156 323.464844 207.28125 C 319.308594 204.054688 319.0625 203.964844 313.84375 203.742188 C 310.863281 203.617188 308.867188 203.296875 308.398438 202.878906 C 307.585938 202.148438 302.507812 200.117188 301.714844 200.203125 C 301.441406 200.230469 300.660156 200.445312 299.980469 200.675781 M 221.085938 203.449219 C 220.558594 203.976562 220.707031 208.070312 221.25 208.070312 C 221.523438 208.070312 221.746094 206.957031 221.746094 205.597656 C 221.746094 203.085938 221.675781 202.859375 221.085938 203.449219 M 285.660156 217.257812 C 283.25 217.78125 281.773438 218.496094 279.554688 220.21875 C 275.167969 223.625 274.796875 223.65625 275.683594 220.570312 C 276.320312 218.347656 275.242188 218.429688 273.332031 220.746094 C 271.09375 223.457031 270.742188 226.886719 272.699219 226.886719 C 273.160156 226.886719 273.828125 226.609375 274.183594 226.265625 C 274.703125 225.769531 274.941406 225.832031 275.398438 226.582031 C 276.429688 228.277344 278.273438 230.351562 278.75 230.351562 C 279.003906 230.351562 279.355469 229.960938 279.523438 229.484375 C 280.21875 227.535156 280.757812 227.292969 281.9375 228.402344 L 283.058594 229.453125 L 283.597656 228.449219 C 283.894531 227.898438 284.136719 226.898438 284.136719 226.234375 C 284.136719 224.792969 286.152344 223.667969 290.082031 222.925781 C 293.519531 222.273438 303.988281 222.726562 306.128906 223.621094 C 307.058594 224.007812 307.921875 224.226562 308.046875 224.101562 C 308.171875 223.976562 310.472656 224.585938 313.164062 225.457031 C 317.878906 226.980469 320.996094 228.582031 320.597656 229.277344 C 320.492188 229.460938 320.5625 230.039062 320.75 230.5625 C 321.0625 231.414062 321.132812 231.429688 321.417969 230.6875 C 321.59375 230.230469 321.507812 229.855469 321.226562 229.855469 C 320.945312 229.855469 320.855469 229.636719 321.023438 229.363281 C 321.214844 229.054688 321.867188 229.148438 322.785156 229.625 C 324.355469 230.4375 324.574219 231.429688 323.78125 234.191406 C 323.148438 236.398438 324.21875 236.261719 325.8125 233.925781 C 326.574219 232.8125 326.585938 232.820312 326.859375 234.855469 C 327.269531 237.917969 327.753906 238.125 330.773438 236.511719 C 332.21875 235.742188 334.253906 234.675781 335.296875 234.144531 C 337.847656 232.847656 339.347656 229.3125 336.867188 230.441406 C 336.1875 230.753906 335.628906 231.195312 335.628906 231.421875 C 335.628906 232.519531 334.097656 231.59375 332.207031 229.359375 C 329.042969 225.601562 322.28125 221.523438 317.804688 220.667969 C 316.851562 220.484375 315.847656 220.160156 315.578125 219.945312 C 315.304688 219.734375 313.300781 219.398438 311.121094 219.203125 C 308.941406 219.003906 306.714844 218.605469 306.167969 218.316406 C 304.867188 217.621094 296.140625 216.53125 292.058594 216.550781 C 290.289062 216.5625 287.410156 216.878906 285.660156 217.257812 M 338.617188 222.800781 C 340.988281 230.125 341.722656 231.90625 342.117188 231.277344 C 343.628906 228.894531 341.121094 221.441406 338.808594 221.441406 C 338.339844 221.441406 338.292969 221.796875 338.617188 222.800781 M 249.273438 283.699219 C 248.617188 285.058594 248.304688 287.164062 248.125 291.542969 L 247.875 297.527344 L 253.503906 302.988281 C 262.621094 311.839844 269.261719 317.347656 277.96875 323.289062 C 279.589844 324.398438 282.589844 326.675781 284.628906 328.355469 C 288.597656 331.617188 297.972656 336.625 301.039062 337.117188 C 302.558594 337.363281 303.398438 337.074219 306.46875 335.253906 C 310.222656 333.023438 316.285156 327.683594 320.429688 322.960938 C 322.636719 320.445312 322.734375 320.230469 321.789062 319.878906 C 320.511719 319.40625 320.441406 317.335938 321.660156 316.113281 C 323.246094 314.527344 324.757812 311.679688 324.445312 310.867188 C 324.257812 310.386719 324.449219 309.957031 324.933594 309.769531 C 325.449219 309.570312 325.726562 308.867188 325.726562 307.753906 C 325.726562 306.816406 325.539062 306.164062 325.304688 306.308594 C 325.074219 306.449219 324.613281 305.667969 324.285156 304.570312 C 323.734375 302.726562 323.582031 302.597656 322.296875 302.878906 C 321.167969 303.128906 320.855469 302.992188 320.640625 302.167969 C 320.492188 301.609375 320.589844 301.152344 320.859375 301.152344 C 321.125 301.152344 321.007812 300.820312 320.597656 300.410156 C 320.191406 300.003906 319.449219 299.683594 318.953125 299.703125 C 318.144531 299.734375 318.152344 299.78125 319.042969 300.164062 C 319.589844 300.398438 319.753906 300.632812 319.414062 300.6875 C 318.539062 300.824219 317.828125 301.011719 317.683594 301.144531 C 317.613281 301.207031 315.328125 301.652344 312.605469 302.132812 C 309.882812 302.613281 308.242188 303.035156 308.957031 303.070312 C 309.8125 303.113281 310.351562 303.476562 310.523438 304.125 C 310.738281 304.957031 310.527344 305.121094 309.21875 305.152344 C 308.359375 305.175781 307.933594 305.304688 308.269531 305.441406 C 308.71875 305.621094 308.746094 305.949219 308.375 306.640625 C 308.027344 307.292969 308.027344 307.589844 308.378906 307.589844 C 308.660156 307.589844 308.894531 307.238281 308.894531 306.8125 C 308.894531 306.335938 309.230469 306.097656 309.757812 306.199219 C 310.234375 306.292969 310.625 306.695312 310.625 307.097656 C 310.625 307.507812 311.273438 307.96875 312.109375 308.144531 C 313.261719 308.390625 313.34375 308.476562 312.484375 308.523438 C 311.664062 308.566406 311.378906 308.875 311.402344 309.695312 C 311.4375 310.757812 311.457031 310.761719 311.863281 309.820312 C 312.175781 309.089844 312.308594 309.550781 312.363281 311.550781 C 312.402344 313.050781 312.550781 313.996094 312.6875 313.652344 C 313.058594 312.730469 313.84375 313.425781 313.84375 314.679688 C 313.84375 315.277344 313.34375 316.09375 312.730469 316.488281 C 311.429688 317.332031 311.367188 317.347656 309.265625 317.4375 C 307.984375 317.492188 307.804688 317.613281 308.398438 318.035156 C 308.980469 318.445312 308.847656 318.515625 307.796875 318.347656 C 307.058594 318.230469 306.371094 318.367188 306.277344 318.65625 C 306.046875 319.34375 302.292969 319.230469 302.058594 318.527344 C 301.960938 318.230469 301.46875 317.988281 300.96875 317.988281 C 300.472656 317.988281 299.976562 317.730469 299.871094 317.410156 C 299.613281 316.636719 297.9375 316.433594 297.148438 317.085938 C 296.800781 317.375 296.515625 317.449219 296.515625 317.25 C 296.515625 317.046875 296.011719 317.203125 295.398438 317.597656 C 293.003906 319.128906 285.859375 317.832031 281.308594 315.039062 C 279.578125 313.976562 276.363281 309.96875 270.222656 301.203125 C 265.441406 294.382812 260.867188 289.179688 255.960938 284.980469 C 251.652344 281.292969 250.546875 281.082031 249.273438 283.699219 M 299.429688 342.644531 C 299.394531 342.835938 299.339844 343.230469 299.304688 343.519531 C 299.265625 343.808594 298.847656 344.4375 298.371094 344.917969 C 297.117188 346.171875 297.300781 347.425781 299.019531 349.386719 C 300.148438 350.671875 301.074219 351.191406 302.675781 351.429688 C 305.476562 351.851562 306.734375 351.128906 307.46875 348.675781 C 308.160156 346.367188 307.621094 344.695312 305.820312 343.570312 C 304.597656 342.808594 299.523438 342.070312 299.429688 342.644531 M 301.613281 345.042969 C 301.195312 345.214844 301.15625 345.644531 301.484375 346.507812 C 301.878906 347.542969 301.78125 347.796875 300.839844 348.152344 C 299.832031 348.535156 299.894531 348.605469 301.546875 348.925781 C 303.636719 349.328125 305.425781 348.898438 305.425781 347.996094 C 305.425781 347.578125 304.914062 347.445312 303.871094 347.601562 C 302.792969 347.757812 302.421875 347.65625 302.664062 347.265625 C 302.851562 346.957031 303.539062 346.703125 304.1875 346.703125 C 305.898438 346.703125 306.199219 345.796875 304.679688 345.21875 C 303.300781 344.695312 302.578125 344.652344 301.613281 345.042969 M 426.398438 472.855469 C 423.703125 474.300781 418.441406 478.941406 413.953125 483.820312 C 407.621094 490.714844 405.527344 492.808594 402.226562 495.542969 C 400.59375 496.898438 397.585938 499.777344 395.542969 501.941406 C 393.5 504.105469 391.710938 505.988281 391.566406 506.128906 C 391.417969 506.265625 389.425781 508.71875 387.136719 511.578125 C 381.367188 518.789062 379.941406 520.242188 376.074219 522.847656 C 371.363281 526.023438 370.710938 526.976562 370.886719 530.363281 L 371.035156 533.117188 L 374.144531 533.265625 C 377.023438 533.402344 377.8125 533.171875 384.816406 530.1875 C 396.5625 525.179688 402.453125 523.335938 407.546875 523.070312 C 410.019531 522.941406 412.859375 523.09375 414.175781 523.425781 L 416.476562 524.003906 L 419.558594 520.828125 C 421.253906 519.082031 424.175781 516.644531 426.050781 515.414062 C 434.132812 510.097656 440.222656 505.667969 443.566406 502.671875 C 445.539062 500.90625 447.628906 499.132812 448.210938 498.730469 C 448.792969 498.328125 449.492188 497.820312 449.761719 497.605469 C 450.035156 497.390625 452 495.902344 454.128906 494.300781 C 458.988281 490.636719 460.410156 488.777344 460.410156 486.074219 C 460.410156 484.449219 460.046875 483.609375 458.652344 481.980469 C 456.589844 479.570312 454.4375 478.953125 451.324219 479.878906 C 448.71875 480.648438 440.183594 485.449219 437.136719 487.859375 C 435.859375 488.867188 433.289062 490.738281 431.421875 492.015625 C 425.863281 495.824219 416.664062 503.410156 414.695312 505.808594 C 412.949219 507.9375 409.902344 510.019531 409.902344 509.082031 C 409.902344 508.835938 410.832031 507.285156 411.96875 505.628906 C 413.8125 502.945312 414.871094 501.84375 418.144531 499.199219 C 418.648438 498.792969 419.601562 497.386719 420.261719 496.078125 C 421.425781 493.765625 430.90625 484.347656 432.070312 484.347656 C 432.351562 484.347656 433.046875 483.449219 433.621094 482.351562 C 436.835938 476.183594 432.015625 469.84375 426.398438 472.855469 M 455.589844 495.609375 C 454.207031 496.632812 449.878906 499.851562 445.972656 502.769531 C 434.375 511.425781 431.144531 513.734375 427.234375 516.160156 C 423.195312 518.667969 418.011719 523.550781 418.519531 524.371094 C 418.691406 524.652344 420.109375 525.246094 421.671875 525.695312 C 424.476562 526.496094 427.980469 527.96875 432.054688 530.054688 L 434.152344 531.128906 L 438.242188 527.101562 C 442.621094 522.796875 446.613281 519.902344 451.007812 517.84375 C 454.855469 516.046875 465.761719 504.804688 465.929688 502.464844 C 466.195312 498.757812 465.171875 496.3125 462.714844 494.792969 C 460.242188 493.265625 458.492188 493.46875 455.589844 495.609375 M 402.488281 496.800781 C 401.816406 497.058594 401.148438 497.453125 401.003906 497.679688 C 400.859375 497.902344 399.964844 499.039062 399.011719 500.203125 C 397.113281 502.519531 396.828125 503.484375 398.105469 503.273438 C 398.5625 503.195312 399.078125 503.363281 399.25 503.644531 C 399.773438 504.492188 400.980469 504.222656 403.03125 502.789062 C 404.929688 501.46875 404.976562 501.363281 404.679688 499.199219 C 404.308594 496.484375 404.050781 496.203125 402.488281 496.800781 M 402.828125 516.40625 C 400.542969 519.0625 398.078125 521.550781 397.355469 521.9375 C 396.632812 522.324219 396.039062 522.824219 396.039062 523.050781 C 396.039062 523.808594 396.96875 523.472656 398.3125 522.222656 C 399.046875 521.542969 399.8125 520.984375 400.011719 520.984375 C 400.679688 520.984375 408.417969 512.953125 408.417969 512.261719 C 408.417969 510.632812 406.710938 511.898438 402.828125 516.40625 M 449.761719 519.34375 C 447.394531 520.605469 442.632812 524.570312 438.695312 528.5625 L 435.058594 532.25 L 437.90625 534.289062 L 440.757812 536.332031 L 444.496094 532.246094 C 446.554688 530.003906 449.238281 527.273438 450.460938 526.183594 C 454.089844 522.957031 455.953125 520.957031 455.953125 520.289062 C 455.953125 519.527344 453.84375 518.503906 452.339844 518.53125 C 451.738281 518.542969 450.578125 518.90625 449.761719 519.34375 M 186.371094 549.828125 C 185.828125 551.605469 185.039062 553.730469 183.867188 556.539062 C 182.6875 559.378906 182.597656 560.027344 182.914062 563.644531 C 183.242188 567.410156 183.34375 567.675781 184.800781 568.5625 C 186.894531 569.839844 187.65625 569.753906 189.28125 568.058594 C 190.042969 567.261719 191.304688 566.34375 192.082031 566.023438 C 193.347656 565.5 193.664062 565.578125 195.085938 566.773438 C 195.957031 567.507812 197.292969 569.089844 198.054688 570.292969 C 198.820312 571.496094 199.652344 572.476562 199.910156 572.476562 C 201.011719 572.476562 203.425781 575.097656 203.425781 576.292969 C 203.425781 577.722656 203.242188 577.75 208.953125 575.554688 C 211.128906 574.71875 213.78125 573.222656 215.175781 572.050781 C 217.816406 569.820312 220.140625 569.378906 221.964844 570.761719 C 223.292969 571.765625 224.046875 571.675781 223.113281 570.621094 C 222.519531 569.953125 222.425781 569.214844 222.710938 567.402344 C 223.105469 564.855469 222.960938 564.578125 221.933594 565.917969 C 221.347656 566.679688 221.300781 566.574219 221.539062 565.050781 C 222.199219 560.84375 223.460938 556.207031 224.535156 554.0625 C 225.175781 552.78125 225.53125 551.640625 225.332031 551.523438 C 225.128906 551.40625 221.289062 551.511719 216.796875 551.757812 C 210.210938 552.121094 207.90625 552.066406 204.910156 551.480469 C 202.578125 551.019531 199.246094 550.8125 195.9375 550.921875 C 191.421875 551.066406 190.476562 550.957031 189.253906 550.152344 C 187.597656 549.0625 186.636719 548.953125 186.371094 549.828125 M 227.898438 550.816406 C 227.703125 551.429688 227.0625 552.710938 226.472656 553.664062 C 224.824219 556.335938 223.722656 559.683594 223.78125 561.847656 L 223.835938 563.8125 L 224.261719 561.636719 C 224.808594 558.855469 226.179688 555.125 227.027344 554.121094 C 227.390625 553.691406 227.6875 553.101562 227.6875 552.8125 C 227.6875 552.519531 228.023438 552.15625 228.429688 552 C 229.230469 551.691406 229.476562 549.703125 228.710938 549.703125 C 228.457031 549.703125 228.089844 550.203125 227.898438 550.816406 M 233.507812 550.296875 C 232.398438 550.59375 231.648438 551.09375 231.648438 551.539062 C 231.648438 551.988281 231.363281 552.175781 230.925781 552.007812 C 229.664062 551.523438 226.757812 556.726562 225.984375 560.859375 C 225.785156 561.941406 225.382812 563.109375 225.097656 563.453125 C 224.808594 563.800781 224.527344 565.855469 224.472656 568.015625 L 224.371094 571.945312 L 227.953125 575.058594 C 229.925781 576.769531 232.464844 579.558594 233.59375 581.25 C 236.050781 584.929688 236.390625 585.183594 237.089844 583.878906 C 237.425781 583.253906 238.132812 582.871094 238.96875 582.867188 C 241.597656 582.851562 241.804688 582.386719 241.757812 576.582031 C 241.730469 573.488281 241.378906 569.886719 240.917969 568.023438 C 240.480469 566.253906 239.300781 561.40625 238.296875 557.253906 C 237.253906 552.960938 236.230469 549.726562 235.914062 549.753906 C 235.613281 549.78125 234.527344 550.027344 233.507812 550.296875 M 287.136719 683.933594 C 286.199219 684.503906 285.15625 685.792969 284.578125 687.101562 C 283.695312 689.097656 283.671875 689.4375 284.332031 690.710938 C 284.734375 691.488281 285.417969 692.417969 285.855469 692.78125 C 286.964844 693.699219 291.515625 693.480469 292.652344 692.453125 C 294.355469 690.914062 293.558594 686.320312 291.242188 684.324219 C 289.71875 683.011719 288.796875 682.925781 287.136719 683.933594 M 289.085938 684.734375 C 286.78125 685.59375 285.621094 686.945312 285.621094 688.765625 C 285.621094 691.113281 286.328125 691.800781 288.734375 691.800781 C 290.121094 691.800781 290.90625 691.496094 291.542969 690.710938 C 292.378906 689.679688 292.382812 689.496094 291.585938 687.152344 C 290.71875 684.605469 290.359375 684.257812 289.085938 684.734375 M 315.328125 803.449219 C 313.015625 804.078125 311.617188 804.613281 312.222656 804.640625 C 313.726562 804.707031 320.914062 803.148438 321.496094 802.632812 C 322.300781 801.914062 319.734375 802.253906 315.328125 803.449219 "/><g clip-rule="nonzero" clip-path="url(#85b6431447)"><path style=" stroke:none;fill-rule:evenodd;fill:#1c1b1b;fill-opacity:1;" d="M 311.640625 62.097656 C 309.191406 63.71875 307.585938 65.796875 307.117188 67.953125 C 306.503906 70.765625 304.734375 73.925781 303.621094 74.207031 C 301.960938 74.621094 298.050781 74.140625 295.648438 73.21875 C 294.492188 72.777344 291.707031 72.097656 289.457031 71.707031 C 283.835938 70.734375 281.457031 71.214844 279.167969 73.789062 C 277.851562 75.273438 276.695312 75.96875 274.464844 76.625 C 272.839844 77.101562 270.839844 77.777344 270.023438 78.128906 C 269.207031 78.476562 266.789062 79.492188 264.652344 80.378906 C 261.199219 81.8125 260.152344 82.597656 255.199219 87.472656 C 250.710938 91.890625 249.082031 93.902344 246.828125 97.8125 C 245.289062 100.484375 244.027344 102.898438 244.027344 103.183594 C 244.027344 103.464844 243.726562 104.289062 243.359375 105.011719 C 241.648438 108.386719 241.09375 109.988281 240.78125 112.492188 C 240.4375 115.230469 238.585938 119.199219 236.1875 122.339844 C 234.882812 124.050781 234.863281 124.171875 234.59375 134.257812 C 234.351562 143.402344 234.207031 144.730469 233.1875 147.171875 C 231.722656 150.679688 231.261719 152.6875 230.445312 159.140625 C 230.074219 162.046875 229.652344 164.625 229.503906 164.867188 C 229.167969 165.40625 228.132812 176.207031 227.902344 181.582031 C 227.597656 188.605469 227.113281 193.714844 226.75 193.714844 C 226.550781 193.714844 225.960938 194.0625 225.429688 194.488281 C 224.527344 195.214844 224.582031 195.242188 226.328125 194.960938 C 228.640625 194.585938 228.726562 195.25 226.503906 196.3125 C 222.992188 197.984375 222.394531 202.550781 225.515625 203.855469 C 226.894531 204.429688 227.226562 204.878906 227.488281 206.53125 C 227.785156 208.375 227.902344 208.5 229.152344 208.25 C 230.222656 208.035156 230.753906 208.289062 231.769531 209.496094 C 232.8125 210.734375 233.105469 211.722656 233.359375 214.867188 C 233.589844 217.679688 234.070312 219.519531 235.136719 221.6875 C 235.941406 223.320312 236.601562 225.15625 236.601562 225.761719 C 236.601562 226.371094 236.960938 227.761719 237.398438 228.855469 C 238.375 231.296875 237.984375 233.164062 236.339844 233.914062 C 234.667969 234.675781 232.921875 233.828125 231.863281 231.734375 C 231.40625 230.839844 230.753906 229.769531 230.410156 229.363281 C 230.066406 228.953125 229.628906 228.097656 229.433594 227.464844 C 229.09375 226.347656 229.121094 226.335938 230.246094 227.070312 C 231.636719 227.980469 232.222656 227.679688 233.351562 225.480469 C 234.34375 223.539062 234.136719 223.097656 232.660156 224.003906 C 231.691406 224.597656 231.441406 224.492188 229.917969 222.839844 C 228.03125 220.792969 227.070312 217.929688 227.441406 215.441406 L 227.6875 213.765625 L 227.1875 215.25 C 226.722656 216.617188 226.980469 223.46875 227.539062 224.660156 C 227.667969 224.929688 227.097656 224.4375 226.269531 223.5625 C 225.441406 222.6875 224.523438 221.078125 224.230469 219.980469 C 223.542969 217.4375 222.675781 205.449219 223.011719 203.144531 C 223.152344 202.179688 223.035156 201.054688 222.753906 200.644531 C 221.824219 199.296875 221.285156 201.105469 221.601562 204.511719 C 221.820312 206.839844 221.726562 207.777344 221.25 208.070312 C 220.734375 208.390625 220.710938 209.253906 221.125 212.355469 C 221.914062 218.238281 222.636719 220.765625 224.21875 223.171875 C 224.757812 223.988281 225.402344 225.105469 225.652344 225.648438 C 225.898438 226.191406 226.628906 227.429688 227.265625 228.394531 C 227.90625 229.359375 228.988281 231.230469 229.667969 232.546875 C 230.375 233.917969 231.96875 235.785156 233.382812 236.910156 C 234.746094 237.992188 235.933594 239.078125 236.023438 239.320312 C 236.117188 239.566406 237.488281 240.765625 239.078125 241.988281 C 240.664062 243.207031 242.398438 244.933594 242.933594 245.820312 C 244.898438 249.082031 244.628906 261.113281 242.460938 266.992188 C 241.910156 268.488281 241.136719 271.71875 240.742188 274.171875 C 240.351562 276.621094 239.832031 279.851562 239.589844 281.347656 C 239.050781 284.667969 237.453125 288.753906 234.535156 294.269531 C 233.324219 296.558594 231.828125 299.800781 231.207031 301.472656 C 230.324219 303.855469 229.316406 305.285156 226.566406 308.046875 C 224.628906 309.988281 222.476562 311.699219 221.777344 311.84375 C 221.078125 311.988281 219.777344 312.429688 218.882812 312.820312 C 217.988281 313.210938 216.828125 313.53125 216.300781 313.53125 C 215.773438 313.53125 214.613281 313.84375 213.71875 314.222656 C 212.1875 314.875 209.878906 315.425781 204.246094 316.496094 C 202.929688 316.746094 201.589844 317.164062 201.277344 317.425781 C 200.960938 317.6875 199.8125 318.058594 198.722656 318.257812 C 197.632812 318.453125 196.519531 318.75 196.246094 318.917969 C 195.972656 319.085938 194.636719 319.484375 193.277344 319.804688 C 191.914062 320.121094 189.460938 320.753906 187.828125 321.207031 C 186.195312 321.664062 183.519531 322.246094 181.886719 322.507812 C 180.253906 322.769531 178.460938 323.207031 177.90625 323.484375 C 177.347656 323.761719 175.675781 324.171875 174.191406 324.398438 C 172.703125 324.625 170.261719 325.296875 168.765625 325.886719 C 162.339844 328.429688 159.386719 328.984375 145.121094 330.339844 C 136.375 331.171875 130.953125 332.570312 128.835938 334.542969 C 128.527344 334.832031 127.652344 335.515625 126.890625 336.058594 C 122.035156 339.542969 115.277344 346.5625 111.222656 352.332031 C 108.460938 356.265625 107.425781 358.136719 105.363281 362.917969 C 104.804688 364.214844 104.023438 365.902344 103.628906 366.671875 C 103.234375 367.445312 102.910156 368.371094 102.910156 368.738281 C 102.910156 369.101562 102.578125 370.085938 102.167969 370.925781 C 101.757812 371.765625 101.089844 373.136719 100.683594 373.976562 C 100.273438 374.816406 99.941406 375.886719 99.941406 376.355469 C 99.941406 376.828125 99.613281 377.644531 99.214844 378.175781 C 98.8125 378.703125 98.476562 379.46875 98.46875 379.878906 C 98.457031 380.285156 98.117188 381.257812 97.707031 382.039062 C 97.300781 382.820312 96.96875 383.757812 96.96875 384.125 C 96.96875 384.492188 96.660156 385.527344 96.28125 386.421875 C 95.609375 388.007812 92.753906 396.96875 91.339844 401.910156 C 90.949219 403.273438 90.257812 406.167969 89.796875 408.347656 C 89.339844 410.523438 88.648438 413.308594 88.261719 414.535156 C 87.875 415.761719 87.558594 417.570312 87.558594 418.558594 C 87.558594 419.546875 87.226562 421.300781 86.820312 422.457031 C 86.410156 423.617188 86.074219 425.453125 86.074219 426.539062 C 86.074219 427.625 85.746094 430.328125 85.34375 432.542969 C 84.941406 434.757812 84.375 439.019531 84.085938 442.015625 C 83.792969 445.011719 83.25 450.132812 82.871094 453.402344 C 82.496094 456.671875 81.945312 461.570312 81.648438 464.296875 C 81.351562 467.019531 80.980469 469.582031 80.820312 469.988281 C 80.53125 470.714844 79.605469 480.207031 78.574219 493.011719 C 77.890625 501.46875 77.90625 550.777344 78.597656 560.59375 C 78.894531 564.816406 79.453125 572.835938 79.835938 578.417969 C 80.601562 589.496094 81.40625 597.21875 82.164062 600.71875 C 82.429688 601.957031 82.84375 604.519531 83.078125 606.414062 C 83.316406 608.308594 83.734375 610.75 84.007812 611.839844 C 84.28125 612.929688 84.875 615.601562 85.328125 617.78125 C 85.78125 619.960938 86.378906 622.410156 86.65625 623.226562 C 86.933594 624.042969 87.332031 625.492188 87.539062 626.445312 C 88.023438 628.683594 91.078125 637.929688 91.542969 638.578125 C 91.742188 638.847656 92.070312 639.84375 92.269531 640.789062 C 92.472656 641.730469 92.824219 642.847656 93.054688 643.261719 C 93.636719 644.332031 95.484375 648.621094 95.484375 648.910156 C 95.484375 649.042969 96.128906 650.558594 96.917969 652.28125 C 99.96875 658.925781 99.9375 658.6875 99.953125 677.089844 C 99.964844 687.789062 100.234375 696.945312 100.6875 701.953125 C 101.082031 706.308594 101.40625 712.210938 101.410156 715.070312 C 101.414062 717.929688 101.742188 722.609375 102.144531 725.46875 C 103.628906 736.089844 103.988281 740.125 105.851562 767.058594 C 106.125 771.007812 106.578125 775.574219 106.851562 777.210938 C 107.128906 778.84375 107.605469 781.960938 107.914062 784.140625 C 108.59375 788.960938 109.519531 794.613281 110.550781 800.230469 C 110.976562 802.546875 111.621094 806.125 111.980469 808.183594 C 112.34375 810.242188 112.785156 812.164062 112.964844 812.453125 C 113.140625 812.742188 113.515625 814.734375 113.796875 816.878906 C 114.34375 821.097656 115.59375 827.449219 117.34375 834.890625 C 117.628906 836.117188 118.042969 838.34375 118.257812 839.839844 C 118.472656 841.339844 119.226562 844.125 119.929688 846.03125 C 120.632812 847.9375 121.214844 849.871094 121.222656 850.328125 C 121.226562 850.785156 121.582031 851.507812 122.007812 851.9375 C 122.714844 852.640625 138.363281 852.714844 286.855469 852.714844 C 377.089844 852.714844 451.273438 852.578125 451.703125 852.414062 C 452.300781 852.183594 452.484375 851.390625 452.484375 849.070312 C 452.480469 845.660156 453.601562 835.933594 454.777344 829.195312 C 455.398438 825.640625 456.160156 823.539062 458.550781 818.800781 C 461.457031 813.039062 461.550781 812.734375 461.574219 808.898438 C 461.589844 806.574219 461.226562 803.503906 460.695312 801.46875 C 459.957031 798.648438 459.839844 796.847656 460.058594 791.792969 C 460.382812 784.335938 460.984375 780.667969 463.34375 771.761719 C 466.347656 760.425781 466.613281 754.453125 464.609375 743.046875 C 463.230469 735.195312 463.152344 731.03125 464.296875 726.59375 C 465.609375 721.503906 467.808594 714.203125 470.226562 706.902344 C 475.070312 692.304688 475.515625 689.46875 475.488281 673.480469 C 475.464844 660.316406 474.792969 652.222656 473 643.589844 C 471.425781 636.023438 471.476562 635.953125 481.203125 632.179688 C 493.167969 627.539062 497.777344 623.511719 502.226562 613.820312 C 502.726562 612.730469 503.347656 611.417969 503.605469 610.90625 C 503.863281 610.390625 504.417969 608.832031 504.835938 607.4375 C 507.792969 597.585938 508.453125 590.703125 508.917969 564.804688 C 509.183594 549.945312 509.515625 541.78125 509.921875 540.296875 C 511.210938 535.566406 513.480469 528.621094 514.28125 526.945312 C 514.90625 525.640625 515.121094 523.871094 515.121094 519.996094 C 515.121094 515.519531 514.898438 514.105469 513.542969 509.847656 C 512.675781 507.121094 511.265625 502.554688 510.414062 499.695312 C 508.996094 494.960938 508.070312 492.273438 506.90625 489.546875 C 505.929688 487.257812 503.371094 479.480469 502.261719 475.433594 C 501.390625 472.246094 499.117188 464.878906 497.679688 460.582031 C 497.269531 459.355469 496.148438 456.683594 495.1875 454.640625 C 494.226562 452.597656 493.15625 450.257812 492.808594 449.441406 C 491.289062 445.886719 488.796875 440.8125 487.296875 438.226562 C 484.742188 433.828125 482.398438 429.511719 479.941406 424.6875 C 478.695312 422.234375 477.476562 419.894531 477.230469 419.488281 C 471.457031 409.851562 467.710938 403.148438 467.492188 402.042969 C 467.339844 401.277344 467.019531 400.53125 466.78125 400.386719 C 466.542969 400.238281 466.351562 399.703125 466.351562 399.199219 C 466.351562 398.3125 463.257812 388.113281 462.371094 386.066406 C 462.132812 385.523438 461.71875 384.296875 461.453125 383.34375 C 459.410156 376.097656 455.683594 370.671875 450.503906 367.402344 C 446.914062 365.132812 446.730469 364.898438 442.871094 357.597656 C 440.949219 353.964844 439.378906 352.144531 436.730469 350.480469 C 434.292969 348.945312 429.117188 347.199219 427.015625 347.199219 C 425.988281 347.199219 423.574219 346.320312 420.902344 344.972656 C 418.472656 343.746094 416.269531 342.742188 416.003906 342.742188 C 415.601562 342.742188 412.917969 341.664062 406.191406 338.792969 C 404.957031 338.269531 401.453125 337.355469 398.515625 336.792969 C 397.289062 336.558594 392.976562 336.351562 388.9375 336.335938 C 383.660156 336.316406 380.796875 336.078125 378.789062 335.496094 C 375.851562 334.640625 373.464844 332.6875 372.402344 330.261719 C 371.34375 327.839844 368.097656 326.25 363.359375 325.824219 C 361.042969 325.621094 357.65625 325.203125 355.832031 324.898438 C 352.769531 324.386719 352.289062 324.125 349.613281 321.535156 C 348.015625 319.992188 345.355469 316.949219 343.695312 314.769531 C 342.035156 312.589844 339.328125 309.503906 337.671875 307.910156 C 334.078125 304.445312 333.730469 303.230469 334.609375 297.207031 C 334.949219 294.886719 335.417969 290.476562 335.648438 287.410156 C 335.882812 284.339844 336.214844 281.605469 336.386719 281.324219 C 336.558594 281.046875 336.890625 279.472656 337.125 277.828125 C 337.539062 274.90625 337.652344 274.730469 342.113281 270.191406 C 344.625 267.632812 347.03125 265.027344 347.46875 264.394531 C 347.902344 263.761719 348.8125 262.601562 349.496094 261.8125 C 353.84375 256.773438 356.117188 253.675781 357.503906 250.898438 C 357.914062 250.082031 358.976562 248.078125 359.871094 246.445312 C 361.375 243.707031 362.097656 241.679688 363.398438 236.585938 C 363.671875 235.519531 364.050781 234.40625 364.242188 234.109375 C 364.609375 233.542969 365.078125 231.984375 366.71875 225.875 C 367.269531 223.820312 368.203125 217.804688 368.785156 212.507812 C 369.371094 207.207031 370.054688 202.203125 370.300781 201.386719 C 370.550781 200.570312 370.976562 198.230469 371.25 196.1875 C 373.355469 180.390625 373.425781 180.117188 376.570312 175.425781 C 377.746094 173.671875 378.707031 171.863281 378.707031 171.402344 C 378.707031 170.941406 379.042969 170.285156 379.453125 169.949219 C 379.859375 169.609375 380.195312 169.039062 380.195312 168.683594 C 380.195312 168.324219 380.457031 167.40625 380.777344 166.636719 C 381.832031 164.109375 382.722656 159.867188 383.199219 155.09375 C 383.460938 152.507812 383.914062 148.273438 384.210938 145.6875 C 384.507812 143.101562 384.644531 138.976562 384.515625 136.527344 C 384.382812 134.078125 384.007812 126.390625 383.683594 119.445312 C 383.042969 105.8125 382.675781 103.789062 379.699219 97.492188 C 378.289062 94.503906 374.257812 89.4375 371.5 87.183594 C 370.9375 86.722656 369.824219 85.382812 369.023438 84.207031 C 368.226562 83.027344 367.429688 81.953125 367.261719 81.816406 C 367.089844 81.679688 366.28125 80.511719 365.464844 79.21875 C 363.644531 76.335938 357.75 70.976562 354.121094 68.898438 C 350.441406 66.792969 346.492188 66.109375 338.847656 66.257812 L 332.414062 66.382812 L 328.21875 64.15625 C 325.21875 62.5625 322.890625 61.726562 320.046875 61.226562 C 314.636719 60.277344 314.347656 60.304688 311.640625 62.097656 M 315.117188 67.246094 C 314.691406 67.675781 314.339844 68.679688 314.339844 69.476562 L 314.339844 70.929688 L 316.351562 69.472656 C 317.457031 68.671875 318.628906 67.90625 318.953125 67.773438 C 319.367188 67.605469 319.320312 67.382812 318.796875 67.007812 C 317.710938 66.242188 316.011719 66.351562 315.117188 67.246094 M 300.355469 99.640625 C 298.25 99.847656 295.972656 100.378906 295.296875 100.820312 C 294.625 101.261719 293.453125 101.621094 292.695312 101.625 C 290.9375 101.625 287.429688 103.703125 288.714844 103.980469 C 289.382812 104.125 289.46875 104.375 289.097656 105.066406 C 288.835938 105.558594 288.261719 106.097656 287.824219 106.265625 C 287.164062 106.519531 287.082031 106.320312 287.355469 105.085938 C 288.058594 101.878906 285.230469 104.453125 283.75 108.367188 C 283.222656 109.765625 282.402344 111.4375 281.925781 112.082031 C 281.066406 113.246094 281.058594 113.234375 281.339844 110.78125 L 281.621094 108.304688 L 280.421875 110.535156 C 278.511719 114.078125 271.261719 132.957031 271.261719 134.386719 C 271.261719 135.257812 272.640625 134.730469 273.777344 133.421875 C 277.449219 129.207031 278.910156 126.878906 282.304688 119.847656 C 284.425781 115.449219 286.46875 111.867188 287.019531 111.570312 C 287.554688 111.285156 288.628906 110.046875 289.40625 108.816406 C 290.179688 107.589844 291.097656 106.476562 291.4375 106.347656 C 292.695312 105.863281 291.988281 107.085938 289.390625 109.894531 C 287.410156 112.03125 286.09375 114.179688 284.285156 118.214844 C 280.820312 125.953125 278.238281 130.148438 274.378906 134.304688 C 271.570312 137.328125 266.621094 141.230469 265.589844 141.230469 C 265.441406 141.230469 265.308594 140.394531 265.296875 139.375 C 265.261719 136.261719 264.539062 133.492188 263.460938 132.335938 C 262.4375 131.238281 262.433594 131.238281 261.894531 132.238281 C 261.601562 132.792969 261.359375 133.6875 261.359375 134.226562 C 261.359375 134.765625 261.105469 135.292969 260.796875 135.394531 C 260.457031 135.507812 260.375 136.011719 260.585938 136.679688 C 260.777344 137.285156 261.140625 137.652344 261.394531 137.496094 C 262.117188 137.050781 261.929688 138.464844 261.125 139.527344 C 260.726562 140.054688 260.390625 141.171875 260.382812 142.007812 C 260.367188 143.667969 259.039062 148.03125 258.246094 149.042969 C 256.757812 150.9375 259.648438 149.828125 262.066406 147.574219 C 263.660156 146.09375 266.671875 145.503906 269.527344 146.117188 C 270.890625 146.410156 275.125 146.617188 278.9375 146.574219 C 285.257812 146.507812 286.195312 146.617188 289.582031 147.804688 C 294.492188 149.527344 297.566406 152.699219 298.476562 156.988281 C 298.804688 158.546875 299 160.484375 298.910156 161.292969 C 298.753906 162.671875 298.589844 162.777344 296.398438 162.917969 C 294.222656 163.058594 293.882812 162.910156 291.695312 160.878906 C 289.222656 158.589844 286.710938 157.074219 285.378906 157.074219 C 284.945312 157.074219 283.695312 156.617188 282.601562 156.0625 C 279.882812 154.671875 274.960938 154.683594 270.605469 156.09375 C 268.789062 156.679688 267.300781 157.363281 267.300781 157.613281 C 267.300781 157.863281 267.054688 158.066406 266.757812 158.066406 C 266.460938 158.066406 265.675781 158.492188 265.011719 159.015625 C 264.347656 159.535156 262.898438 160.117188 261.785156 160.304688 C 258.679688 160.828125 256.816406 163.0625 256.148438 167.058594 C 255.953125 168.238281 255.539062 169.363281 255.238281 169.554688 C 254.835938 169.808594 254.859375 170.082031 255.3125 170.539062 C 255.824219 171.050781 256 170.960938 256.234375 170.066406 C 256.476562 169.128906 256.785156 168.996094 258.277344 169.179688 C 259.628906 169.347656 260.503906 169.074219 262.058594 167.996094 C 263.171875 167.226562 265.265625 166.1875 266.710938 165.6875 C 268.972656 164.90625 269.398438 164.878906 269.78125 165.496094 C 270.125 166.054688 271.730469 166.242188 277.015625 166.351562 C 280.753906 166.425781 283.917969 166.597656 284.054688 166.730469 C 284.191406 166.867188 284.6875 166.976562 285.164062 166.976562 C 285.636719 166.976562 287.15625 167.5625 288.539062 168.28125 C 290.734375 169.421875 291.015625 169.734375 290.753906 170.777344 C 290.558594 171.550781 290.753906 172.296875 291.304688 172.90625 C 292.40625 174.125 291.808594 175.066406 290.140625 174.734375 C 285.390625 173.789062 284.136719 173.304688 284.136719 172.414062 C 284.136719 171.042969 283.273438 170.765625 282.644531 171.9375 C 282.152344 172.859375 281.707031 172.953125 278.289062 172.835938 C 272.894531 172.65625 265.539062 172.972656 264.820312 173.414062 C 263.25 174.386719 276.007812 176.8125 279.367188 176.179688 C 281.265625 175.824219 284.234375 176.316406 283.859375 176.925781 C 283.714844 177.160156 282.660156 177.601562 281.515625 177.914062 C 276.207031 179.355469 265.085938 177.558594 262.347656 174.820312 L 260.921875 173.394531 L 255.414062 173.644531 C 252.386719 173.78125 249.632812 174.0625 249.292969 174.273438 C 248.957031 174.480469 248.269531 175.542969 247.765625 176.632812 C 247.261719 177.722656 246.699219 178.722656 246.515625 178.859375 C 246.195312 179.09375 245.652344 182.738281 244.378906 193.21875 C 243.640625 199.285156 243.6875 210.898438 244.453125 211.664062 C 244.761719 211.976562 245.019531 213.167969 245.019531 214.3125 C 245.019531 215.457031 245.460938 218.585938 246.003906 221.269531 C 246.546875 223.949219 246.992188 226.9375 246.996094 227.90625 C 246.996094 228.875 247.328125 230.101562 247.726562 230.628906 C 248.125 231.15625 248.460938 231.945312 248.46875 232.378906 C 248.484375 233.078125 248.917969 233.738281 250.949219 236.148438 C 251.230469 236.476562 251.457031 237.050781 251.457031 237.425781 C 251.457031 237.796875 252.011719 238.625 252.691406 239.265625 C 253.375 239.902344 253.929688 240.710938 253.929688 241.054688 C 253.929688 241.402344 254.324219 241.976562 254.804688 242.332031 C 255.691406 242.988281 256.132812 243.570312 259.0625 247.929688 C 259.976562 249.289062 264.046875 253.59375 268.101562 257.492188 C 277.488281 266.511719 281.179688 268.726562 287.601562 269.207031 C 289.917969 269.378906 293.371094 269.730469 295.277344 269.984375 C 297.183594 270.242188 299.746094 270.566406 300.96875 270.707031 C 303.058594 270.945312 305.765625 271.503906 313.210938 273.242188 C 317.140625 274.160156 320.585938 273.75 324.613281 271.886719 C 326.316406 271.101562 327.945312 270.457031 328.234375 270.457031 C 328.519531 270.457031 329.753906 269.898438 330.972656 269.21875 C 332.191406 268.539062 333.414062 267.980469 333.6875 267.980469 C 333.960938 267.980469 335.589844 267.324219 337.300781 266.523438 C 339.851562 265.332031 341.355469 264.054688 345.617188 259.46875 C 352.230469 252.351562 354.15625 250.152344 354.847656 248.917969 C 355.367188 247.996094 355.40625 248.023438 355.421875 249.289062 C 355.429688 250.039062 355.214844 250.652344 354.941406 250.652344 C 354.667969 250.652344 354.445312 251.214844 354.445312 251.90625 C 354.445312 252.59375 354.160156 253.269531 353.8125 253.402344 C 353.460938 253.535156 352.628906 254.644531 351.964844 255.863281 C 351.296875 257.082031 350.585938 258.078125 350.382812 258.078125 C 350.183594 258.078125 349.65625 258.800781 349.21875 259.6875 L 348.421875 261.296875 L 350.085938 259.5625 C 353.320312 256.191406 358.441406 247.136719 360.371094 241.378906 C 362.28125 235.671875 365.199219 220.535156 364.914062 217.796875 C 364.832031 217.019531 365.144531 212.472656 365.609375 207.6875 C 366.101562 202.59375 366.300781 197.949219 366.097656 196.476562 C 365.902344 195.09375 365.765625 193.449219 365.785156 192.820312 C 365.808594 192.183594 365.609375 191.8125 365.335938 191.984375 C 365.066406 192.148438 364.84375 192.105469 364.839844 191.886719 C 364.820312 189.488281 363.648438 184.996094 362.910156 184.480469 C 362.304688 184.058594 361.921875 182.953125 361.726562 181.054688 C 361.175781 175.714844 360.035156 173.550781 356.035156 170.261719 C 352.773438 167.582031 350.53125 166.421875 345.171875 164.632812 C 343.242188 163.988281 337.273438 164.136719 334 164.910156 C 331.78125 165.433594 327.738281 168.164062 327.71875 169.152344 C 327.703125 169.859375 326.066406 170.90625 324.945312 170.921875 C 324.113281 170.933594 323.808594 170.464844 323.335938 168.425781 C 322.125 163.167969 322.335938 162.601562 327.550781 157.222656 C 330.308594 154.375 330.878906 154.019531 333.292969 153.625 C 336.367188 153.125 340.539062 153.59375 346.214844 155.070312 C 348.359375 155.628906 350.535156 156.085938 351.050781 156.085938 C 351.5625 156.085938 352.371094 156.269531 352.84375 156.5 C 357.570312 158.777344 357.609375 158.808594 359.433594 162.199219 C 360.4375 164.0625 361.394531 165.375 361.554688 165.113281 C 361.957031 164.464844 361.820312 160.90625 361.371094 160.292969 C 361.070312 159.882812 360.375 152.636719 360.335938 149.523438 C 360.332031 149.050781 360.039062 147.265625 359.683594 145.5625 C 359.273438 143.585938 359.203125 142.039062 359.484375 141.277344 C 359.976562 139.953125 359.769531 137.902344 359 136.460938 C 358.277344 135.113281 356.597656 129.902344 356.230469 127.863281 C 355.84375 125.734375 353.957031 122.898438 349.882812 118.335938 C 345.441406 113.355469 344.515625 112.515625 343.480469 112.515625 C 342.375 112.515625 342.378906 112.453125 343.3125 114.683594 C 344.304688 117.058594 343.351562 117.007812 342.128906 114.617188 C 341.121094 112.652344 335.402344 107.277344 331.667969 104.792969 C 329.824219 103.566406 323.363281 100.632812 322.503906 100.632812 C 322.371094 100.632812 322.261719 101.078125 322.261719 101.621094 C 322.261719 102.816406 321.707031 102.863281 319.707031 101.828125 C 318.875 101.398438 315.558594 100.738281 312.34375 100.363281 C 309.125 99.988281 305.972656 99.585938 305.339844 99.472656 C 304.707031 99.359375 302.464844 99.4375 300.355469 99.640625 M 273.3125 107.914062 C 271.734375 111.042969 270.507812 115.980469 271.921875 113.503906 C 273.085938 111.476562 275.339844 105.535156 275.054688 105.25 C 274.910156 105.105469 274.128906 106.304688 273.3125 107.914062 M 273.058594 121.097656 C 272.0625 123.488281 271.652344 124.890625 271.953125 124.890625 C 272.382812 124.890625 273.371094 122.808594 273.761719 121.066406 C 274.230469 118.984375 273.9375 119 273.058594 121.097656 M 263.65625 127.636719 C 262.90625 129.832031 263 131.328125 263.886719 131.328125 C 264.128906 131.328125 264.328125 131.105469 264.328125 130.832031 C 264.328125 130.5625 264.105469 130.339844 263.835938 130.339844 C 263.5625 130.339844 263.339844 130.101562 263.339844 129.8125 C 263.339844 129.527344 263.523438 129.40625 263.75 129.542969 C 263.980469 129.683594 264.167969 129.53125 264.171875 129.203125 C 264.175781 128.875 264.34375 127.882812 264.542969 126.996094 C 265.070312 124.652344 264.542969 125.027344 263.65625 127.636719 M 331.667969 173.46875 C 330.257812 174.027344 325.726562 178.3125 325.726562 179.089844 C 325.726562 179.40625 327.96875 179.652344 331.628906 179.734375 C 336.769531 179.847656 337.996094 180.050781 341.160156 181.289062 C 343.15625 182.070312 346.402344 182.960938 348.371094 183.265625 C 350.339844 183.570312 352.792969 184.242188 353.820312 184.761719 C 356.523438 186.132812 360.527344 186.570312 361.34375 185.585938 C 361.875 184.945312 361.851562 184.761719 361.210938 184.515625 C 360.785156 184.351562 360.25 184.335938 360.019531 184.476562 C 359.792969 184.617188 358.386719 184.074219 356.902344 183.273438 C 355.414062 182.472656 353.511719 181.5 352.675781 181.109375 C 351.835938 180.71875 350.871094 180.070312 350.535156 179.664062 C 349.679688 178.632812 342.925781 175.890625 341.234375 175.886719 C 339.019531 175.882812 336.351562 174.980469 335.378906 173.90625 C 334.402344 172.824219 333.554688 172.726562 331.667969 173.46875 M 330.679688 183.558594 C 330.679688 184.011719 337.359375 187.117188 339.703125 187.753906 C 342.003906 188.378906 344.800781 188.28125 350.355469 187.382812 C 351.78125 187.148438 353.078125 186.832031 353.238281 186.671875 C 353.875 186.03125 350.40625 185.757812 348.839844 186.320312 C 347.058594 186.96875 343.113281 186.261719 337.164062 184.230469 C 334.714844 183.394531 330.679688 182.976562 330.679688 183.558594 M 299.980469 200.675781 C 295.617188 202.152344 293.121094 202.644531 289.835938 202.679688 C 286.308594 202.714844 286.117188 202.777344 286.117188 203.84375 C 286.117188 205.140625 287.683594 207.3125 289.25 208.179688 C 289.839844 208.507812 293.222656 208.929688 296.761719 209.113281 C 302.113281 209.390625 303.699219 209.664062 306.167969 210.730469 C 308.292969 211.644531 310.023438 212.011719 312.230469 212.019531 C 314.273438 212.027344 316.886719 212.535156 319.953125 213.519531 C 322.503906 214.335938 324.902344 215.003906 325.285156 215.003906 C 326.242188 215.003906 328.699219 211.816406 328.699219 210.574219 C 328.699219 209.839844 328.378906 209.558594 327.546875 209.558594 C 326.914062 209.558594 325.078125 208.535156 323.464844 207.28125 C 319.308594 204.054688 319.0625 203.964844 313.84375 203.742188 C 310.863281 203.617188 308.867188 203.296875 308.398438 202.878906 C 307.585938 202.148438 302.507812 200.117188 301.714844 200.203125 C 301.441406 200.230469 300.660156 200.445312 299.980469 200.675781 M 285.660156 217.257812 C 283.25 217.78125 281.773438 218.496094 279.554688 220.21875 C 275.167969 223.625 274.796875 223.65625 275.683594 220.570312 C 276.320312 218.347656 275.242188 218.429688 273.332031 220.746094 C 271.09375 223.457031 270.742188 226.886719 272.699219 226.886719 C 273.160156 226.886719 273.828125 226.609375 274.183594 226.265625 C 274.703125 225.769531 274.941406 225.832031 275.398438 226.582031 C 276.429688 228.277344 278.273438 230.351562 278.75 230.351562 C 279.003906 230.351562 279.355469 229.960938 279.523438 229.484375 C 280.21875 227.535156 280.757812 227.292969 281.9375 228.402344 L 283.058594 229.453125 L 283.597656 228.449219 C 283.894531 227.898438 284.136719 226.898438 284.136719 226.234375 C 284.136719 224.792969 286.152344 223.667969 290.082031 222.925781 C 293.519531 222.273438 303.988281 222.726562 306.128906 223.621094 C 307.058594 224.007812 307.921875 224.226562 308.046875 224.101562 C 308.171875 223.976562 310.472656 224.585938 313.164062 225.457031 C 317.878906 226.980469 320.996094 228.582031 320.597656 229.277344 C 320.492188 229.460938 320.5625 230.039062 320.75 230.5625 C 321.0625 231.414062 321.132812 231.429688 321.417969 230.6875 C 321.59375 230.230469 321.507812 229.855469 321.226562 229.855469 C 320.945312 229.855469 320.855469 229.636719 321.023438 229.363281 C 321.214844 229.054688 321.867188 229.148438 322.785156 229.625 C 324.355469 230.4375 324.574219 231.429688 323.78125 234.191406 C 323.148438 236.398438 324.21875 236.261719 325.8125 233.925781 C 326.574219 232.8125 326.585938 232.820312 326.859375 234.855469 C 327.269531 237.917969 327.753906 238.125 330.773438 236.511719 C 332.21875 235.742188 334.253906 234.675781 335.296875 234.144531 C 337.847656 232.847656 339.347656 229.3125 336.867188 230.441406 C 336.1875 230.753906 335.628906 231.195312 335.628906 231.421875 C 335.628906 232.519531 334.097656 231.59375 332.207031 229.359375 C 329.042969 225.601562 322.28125 221.523438 317.804688 220.667969 C 316.851562 220.484375 315.847656 220.160156 315.578125 219.945312 C 315.304688 219.734375 313.300781 219.398438 311.121094 219.203125 C 308.941406 219.003906 306.714844 218.605469 306.167969 218.316406 C 304.867188 217.621094 296.140625 216.53125 292.058594 216.550781 C 290.289062 216.5625 287.410156 216.878906 285.660156 217.257812 M 338.617188 222.800781 C 340.988281 230.125 341.722656 231.90625 342.117188 231.277344 C 343.628906 228.894531 341.121094 221.441406 338.808594 221.441406 C 338.339844 221.441406 338.292969 221.796875 338.617188 222.800781 M 249.273438 283.699219 C 248.617188 285.058594 248.304688 287.164062 248.125 291.542969 L 247.875 297.527344 L 253.503906 302.988281 C 262.621094 311.839844 269.261719 317.347656 277.96875 323.289062 C 279.589844 324.398438 282.589844 326.675781 284.628906 328.355469 C 288.597656 331.617188 297.972656 336.625 301.039062 337.117188 C 302.558594 337.363281 303.398438 337.074219 306.46875 335.253906 C 310.222656 333.023438 316.285156 327.683594 320.429688 322.960938 C 322.636719 320.445312 322.734375 320.230469 321.789062 319.878906 C 320.511719 319.40625 320.441406 317.335938 321.660156 316.113281 C 323.246094 314.527344 324.757812 311.679688 324.445312 310.867188 C 324.257812 310.386719 324.449219 309.957031 324.933594 309.769531 C 325.449219 309.570312 325.726562 308.867188 325.726562 307.753906 C 325.726562 306.816406 325.539062 306.164062 325.304688 306.308594 C 325.074219 306.449219 324.613281 305.667969 324.285156 304.570312 C 323.734375 302.726562 323.582031 302.597656 322.296875 302.878906 C 321.167969 303.128906 320.855469 302.992188 320.640625 302.167969 C 320.492188 301.609375 320.589844 301.152344 320.859375 301.152344 C 321.125 301.152344 321.007812 300.820312 320.597656 300.410156 C 320.191406 300.003906 319.449219 299.683594 318.953125 299.703125 C 318.144531 299.734375 318.152344 299.78125 319.042969 300.164062 C 319.589844 300.398438 319.753906 300.632812 319.414062 300.6875 C 318.539062 300.824219 317.828125 301.011719 317.683594 301.144531 C 317.613281 301.207031 315.328125 301.652344 312.605469 302.132812 C 309.882812 302.613281 308.242188 303.035156 308.957031 303.070312 C 309.8125 303.113281 310.351562 303.476562 310.523438 304.125 C 310.738281 304.957031 310.527344 305.121094 309.21875 305.152344 C 308.359375 305.175781 307.933594 305.304688 308.269531 305.441406 C 308.71875 305.621094 308.746094 305.949219 308.375 306.640625 C 308.027344 307.292969 308.027344 307.589844 308.378906 307.589844 C 308.660156 307.589844 308.894531 307.238281 308.894531 306.8125 C 308.894531 306.335938 309.230469 306.097656 309.757812 306.199219 C 310.234375 306.292969 310.625 306.695312 310.625 307.097656 C 310.625 307.507812 311.273438 307.96875 312.109375 308.144531 C 313.261719 308.390625 313.34375 308.476562 312.484375 308.523438 C 311.664062 308.566406 311.378906 308.875 311.402344 309.695312 C 311.4375 310.757812 311.457031 310.761719 311.863281 309.820312 C 312.175781 309.089844 312.308594 309.550781 312.363281 311.550781 C 312.402344 313.050781 312.550781 313.996094 312.6875 313.652344 C 313.058594 312.730469 313.84375 313.425781 313.84375 314.679688 C 313.84375 315.277344 313.34375 316.09375 312.730469 316.488281 C 311.429688 317.332031 311.367188 317.347656 309.265625 317.4375 C 307.984375 317.492188 307.804688 317.613281 308.398438 318.035156 C 308.980469 318.445312 308.847656 318.515625 307.796875 318.347656 C 307.058594 318.230469 306.371094 318.367188 306.277344 318.65625 C 306.046875 319.34375 302.292969 319.230469 302.058594 318.527344 C 301.960938 318.230469 301.46875 317.988281 300.96875 317.988281 C 300.472656 317.988281 299.976562 317.730469 299.871094 317.410156 C 299.613281 316.636719 297.9375 316.433594 297.148438 317.085938 C 296.800781 317.375 296.515625 317.449219 296.515625 317.25 C 296.515625 317.046875 296.011719 317.203125 295.398438 317.597656 C 293.003906 319.128906 285.859375 317.832031 281.308594 315.039062 C 279.578125 313.976562 276.363281 309.96875 270.222656 301.203125 C 265.441406 294.382812 260.867188 289.179688 255.960938 284.980469 C 251.652344 281.292969 250.546875 281.082031 249.273438 283.699219 M 299.429688 342.644531 C 299.394531 342.835938 299.339844 343.230469 299.304688 343.519531 C 299.265625 343.808594 298.847656 344.4375 298.371094 344.917969 C 297.117188 346.171875 297.300781 347.425781 299.019531 349.386719 C 300.148438 350.671875 301.074219 351.191406 302.675781 351.429688 C 305.476562 351.851562 306.734375 351.128906 307.46875 348.675781 C 308.160156 346.367188 307.621094 344.695312 305.820312 343.570312 C 304.597656 342.808594 299.523438 342.070312 299.429688 342.644531 M 301.613281 345.042969 C 301.195312 345.214844 301.15625 345.644531 301.484375 346.507812 C 301.878906 347.542969 301.78125 347.796875 300.839844 348.152344 C 299.832031 348.535156 299.894531 348.605469 301.546875 348.925781 C 303.636719 349.328125 305.425781 348.898438 305.425781 347.996094 C 305.425781 347.578125 304.914062 347.445312 303.871094 347.601562 C 302.792969 347.757812 302.421875 347.65625 302.664062 347.265625 C 302.851562 346.957031 303.539062 346.703125 304.1875 346.703125 C 305.898438 346.703125 306.199219 345.796875 304.679688 345.21875 C 303.300781 344.695312 302.578125 344.652344 301.613281 345.042969 M 426.398438 472.855469 C 423.703125 474.300781 418.441406 478.941406 413.953125 483.820312 C 407.621094 490.714844 405.527344 492.808594 402.226562 495.542969 C 400.59375 496.898438 397.585938 499.777344 395.542969 501.941406 C 393.5 504.105469 391.710938 505.988281 391.566406 506.128906 C 391.417969 506.265625 389.425781 508.71875 387.136719 511.578125 C 381.367188 518.789062 379.941406 520.242188 376.074219 522.847656 C 371.363281 526.023438 370.710938 526.976562 370.886719 530.363281 L 371.035156 533.117188 L 374.144531 533.265625 C 377.023438 533.402344 377.8125 533.171875 384.816406 530.1875 C 396.5625 525.179688 402.453125 523.335938 407.546875 523.070312 C 410.019531 522.941406 412.859375 523.09375 414.175781 523.425781 L 416.476562 524.003906 L 419.558594 520.828125 C 421.253906 519.082031 424.175781 516.644531 426.050781 515.414062 C 434.132812 510.097656 440.222656 505.667969 443.566406 502.671875 C 445.539062 500.90625 447.628906 499.132812 448.210938 498.730469 C 448.792969 498.328125 449.492188 497.820312 449.761719 497.605469 C 450.035156 497.390625 452 495.902344 454.128906 494.300781 C 458.988281 490.636719 460.410156 488.777344 460.410156 486.074219 C 460.410156 484.449219 460.046875 483.609375 458.652344 481.980469 C 456.589844 479.570312 454.4375 478.953125 451.324219 479.878906 C 448.71875 480.648438 440.183594 485.449219 437.136719 487.859375 C 435.859375 488.867188 433.289062 490.738281 431.421875 492.015625 C 425.863281 495.824219 416.664062 503.410156 414.695312 505.808594 C 412.949219 507.9375 409.902344 510.019531 409.902344 509.082031 C 409.902344 508.835938 410.832031 507.285156 411.96875 505.628906 C 413.8125 502.945312 414.871094 501.84375 418.144531 499.199219 C 418.648438 498.792969 419.601562 497.386719 420.261719 496.078125 C 421.425781 493.765625 430.90625 484.347656 432.070312 484.347656 C 432.351562 484.347656 433.046875 483.449219 433.621094 482.351562 C 436.835938 476.183594 432.015625 469.84375 426.398438 472.855469 M 455.589844 495.609375 C 454.207031 496.632812 449.878906 499.851562 445.972656 502.769531 C 434.375 511.425781 431.144531 513.734375 427.234375 516.160156 C 423.195312 518.667969 418.011719 523.550781 418.519531 524.371094 C 418.691406 524.652344 420.109375 525.246094 421.671875 525.695312 C 424.476562 526.496094 427.980469 527.96875 432.054688 530.054688 L 434.152344 531.128906 L 438.242188 527.101562 C 442.621094 522.796875 446.613281 519.902344 451.007812 517.84375 C 454.855469 516.046875 465.761719 504.804688 465.929688 502.464844 C 466.195312 498.757812 465.171875 496.3125 462.714844 494.792969 C 460.242188 493.265625 458.492188 493.46875 455.589844 495.609375 M 402.488281 496.800781 C 401.816406 497.058594 401.148438 497.453125 401.003906 497.679688 C 400.859375 497.902344 399.964844 499.039062 399.011719 500.203125 C 397.113281 502.519531 396.828125 503.484375 398.105469 503.273438 C 398.5625 503.195312 399.078125 503.363281 399.25 503.644531 C 399.773438 504.492188 400.980469 504.222656 403.03125 502.789062 C 404.929688 501.46875 404.976562 501.363281 404.679688 499.199219 C 404.308594 496.484375 404.050781 496.203125 402.488281 496.800781 M 402.828125 516.40625 C 400.542969 519.0625 398.078125 521.550781 397.355469 521.9375 C 396.632812 522.324219 396.039062 522.824219 396.039062 523.050781 C 396.039062 523.808594 396.96875 523.472656 398.3125 522.222656 C 399.046875 521.542969 399.8125 520.984375 400.011719 520.984375 C 400.679688 520.984375 408.417969 512.953125 408.417969 512.261719 C 408.417969 510.632812 406.710938 511.898438 402.828125 516.40625 M 449.761719 519.34375 C 447.394531 520.605469 442.632812 524.570312 438.695312 528.5625 L 435.058594 532.25 L 437.90625 534.289062 L 440.757812 536.332031 L 444.496094 532.246094 C 446.554688 530.003906 449.238281 527.273438 450.460938 526.183594 C 454.089844 522.957031 455.953125 520.957031 455.953125 520.289062 C 455.953125 519.527344 453.84375 518.503906 452.339844 518.53125 C 451.738281 518.542969 450.578125 518.90625 449.761719 519.34375 M 186.371094 549.828125 C 185.828125 551.605469 185.039062 553.730469 183.867188 556.539062 C 182.6875 559.378906 182.597656 560.027344 182.914062 563.644531 C 183.242188 567.410156 183.34375 567.675781 184.800781 568.5625 C 186.894531 569.839844 187.65625 569.753906 189.28125 568.058594 C 190.042969 567.261719 191.304688 566.34375 192.082031 566.023438 C 193.347656 565.5 193.664062 565.578125 195.085938 566.773438 C 195.957031 567.507812 197.292969 569.089844 198.054688 570.292969 C 198.820312 571.496094 199.652344 572.476562 199.910156 572.476562 C 201.011719 572.476562 203.425781 575.097656 203.425781 576.292969 C 203.425781 577.722656 203.242188 577.75 208.953125 575.554688 C 211.128906 574.71875 213.78125 573.222656 215.175781 572.050781 C 217.816406 569.820312 220.140625 569.378906 221.964844 570.761719 C 223.292969 571.765625 224.046875 571.675781 223.113281 570.621094 C 222.519531 569.953125 222.425781 569.214844 222.710938 567.402344 C 223.105469 564.855469 222.960938 564.578125 221.933594 565.917969 C 221.347656 566.679688 221.300781 566.574219 221.539062 565.050781 C 222.199219 560.84375 223.460938 556.207031 224.535156 554.0625 C 225.175781 552.78125 225.53125 551.640625 225.332031 551.523438 C 225.128906 551.40625 221.289062 551.511719 216.796875 551.757812 C 210.210938 552.121094 207.90625 552.066406 204.910156 551.480469 C 202.578125 551.019531 199.246094 550.8125 195.9375 550.921875 C 191.421875 551.066406 190.476562 550.957031 189.253906 550.152344 C 187.597656 549.0625 186.636719 548.953125 186.371094 549.828125 M 227.898438 550.816406 C 227.703125 551.429688 227.0625 552.710938 226.472656 553.664062 C 224.824219 556.335938 223.722656 559.683594 223.78125 561.847656 L 223.835938 563.8125 L 224.261719 561.636719 C 224.808594 558.855469 226.179688 555.125 227.027344 554.121094 C 227.390625 553.691406 227.6875 553.101562 227.6875 552.8125 C 227.6875 552.519531 228.023438 552.15625 228.429688 552 C 229.230469 551.691406 229.476562 549.703125 228.710938 549.703125 C 228.457031 549.703125 228.089844 550.203125 227.898438 550.816406 M 233.507812 550.296875 C 232.398438 550.59375 231.648438 551.09375 231.648438 551.539062 C 231.648438 551.988281 231.363281 552.175781 230.925781 552.007812 C 229.664062 551.523438 226.757812 556.726562 225.984375 560.859375 C 225.785156 561.941406 225.382812 563.109375 225.097656 563.453125 C 224.808594 563.800781 224.527344 565.855469 224.472656 568.015625 L 224.371094 571.945312 L 227.953125 575.058594 C 229.925781 576.769531 232.464844 579.558594 233.59375 581.25 C 236.050781 584.929688 236.390625 585.183594 237.089844 583.878906 C 237.425781 583.253906 238.132812 582.871094 238.96875 582.867188 C 241.597656 582.851562 241.804688 582.386719 241.757812 576.582031 C 241.730469 573.488281 241.378906 569.886719 240.917969 568.023438 C 240.480469 566.253906 239.300781 561.40625 238.296875 557.253906 C 237.253906 552.960938 236.230469 549.726562 235.914062 549.753906 C 235.613281 549.78125 234.527344 550.027344 233.507812 550.296875 M 287.136719 683.933594 C 286.199219 684.503906 285.15625 685.792969 284.578125 687.101562 C 283.695312 689.097656 283.671875 689.4375 284.332031 690.710938 C 284.734375 691.488281 285.417969 692.417969 285.855469 692.78125 C 286.964844 693.699219 291.515625 693.480469 292.652344 692.453125 C 294.355469 690.914062 293.558594 686.320312 291.242188 684.324219 C 289.71875 683.011719 288.796875 682.925781 287.136719 683.933594 M 289.085938 684.734375 C 286.78125 685.59375 285.621094 686.945312 285.621094 688.765625 C 285.621094 691.113281 286.328125 691.800781 288.734375 691.800781 C 290.121094 691.800781 290.90625 691.496094 291.542969 690.710938 C 292.378906 689.679688 292.382812 689.496094 291.585938 687.152344 C 290.71875 684.605469 290.359375 684.257812 289.085938 684.734375 M 315.328125 803.449219 C 313.015625 804.078125 311.617188 804.613281 312.222656 804.640625 C 313.726562 804.707031 320.914062 803.148438 321.496094 802.632812 C 322.300781 801.914062 319.734375 802.253906 315.328125 803.449219 "/></g></g></svg>