<svg xmlns="http://www.w3.org/2000/svg" xmlns:xlink="http://www.w3.org/1999/xlink" viewBox="93 10 187.07821655273438 182" width="205.58045775025758" height="200"><path d="M 98.000,166.000 C 101.526,165.085 101.500,165.000 105.000,164.000" stroke-width="5.132" stroke="black" fill="none" stroke-linecap="round"></path><path d="M 105.000,164.000 C 109.741,163.044 109.526,162.585 114.000,161.000" stroke-width="3.963" stroke="black" fill="none" stroke-linecap="round"></path><path d="M 114.000,161.000 C 122.245,156.882 122.241,157.044 130.000,152.000" stroke-width="2.916" stroke="black" fill="none" stroke-linecap="round"></path><path d="M 130.000,152.000 C 135.525,148.034 135.745,148.382 141.000,144.000" stroke-width="3.059" stroke="black" fill="none" stroke-linecap="round"></path><path d="M 141.000,144.000 C 145.213,141.246 145.025,141.034 149.000,138.000" stroke-width="3.382" stroke="black" fill="none" stroke-linecap="round"></path><path d="M 149.000,138.000 C 152.000,135.000 152.213,135.246 155.000,132.000" stroke-width="3.582" stroke="black" fill="none" stroke-linecap="round"></path><path d="M 155.000,132.000 C 158.928,128.840 158.500,128.500 162.000,125.000" stroke-width="3.563" stroke="black" fill="none" stroke-linecap="round"></path><path d="M 162.000,125.000 C 164.574,121.044 164.928,121.340 167.000,117.000" stroke-width="3.546" stroke="black" fill="none" stroke-linecap="round"></path><path d="M 167.000,117.000 C 169.301,113.641 169.074,113.544 171.000,110.000" stroke-width="3.777" stroke="black" fill="none" stroke-linecap="round"></path><path d="M 171.000,110.000 C 172.452,105.981 172.801,106.141 174.000,102.000" stroke-width="3.753" stroke="black" fill="none" stroke-linecap="round"></path><path d="M 174.000,102.000 C 176.083,97.032 175.952,96.981 178.000,92.000" stroke-width="3.531" stroke="black" fill="none" stroke-linecap="round"></path><path d="M 178.000,92.000 C 180.520,86.625 180.083,86.532 182.000,81.000" stroke-width="3.328" stroke="black" fill="none" stroke-linecap="round"></path><path d="M 182.000,81.000 C 182.618,77.012 183.020,77.125 183.000,73.000" stroke-width="3.655" stroke="black" fill="none" stroke-linecap="round"></path><path d="M 183.000,73.000 C 183.759,66.510 183.618,66.512 184.000,60.000" stroke-width="3.247" stroke="black" fill="none" stroke-linecap="round"></path><path d="M 184.000,60.000 C 184.000,53.000 184.259,53.010 184.000,46.000" stroke-width="3.070" stroke="black" fill="none" stroke-linecap="round"></path><path d="M 184.000,46.000 C 184.898,40.788 184.000,41.000 184.000,36.000" stroke-width="3.386" stroke="black" fill="none" stroke-linecap="round"></path><path d="M 184.000,36.000 C 183.219,32.219 183.398,32.788 181.000,30.000" stroke-width="4.196" stroke="black" fill="none" stroke-linecap="round"></path><path d="M 181.000,30.000 C 177.802,26.999 179.219,28.219 176.000,28.000" stroke-width="4.906" stroke="black" fill="none" stroke-linecap="round"></path><path d="M 176.000,28.000 C 173.681,31.357 173.302,29.499 172.000,35.000" stroke-width="4.609" stroke="black" fill="none" stroke-linecap="round"></path><path d="M 172.000,35.000 C 170.596,37.903 170.681,37.857 170.000,41.000" stroke-width="4.240" stroke="black" fill="none" stroke-linecap="round"></path><path d="M 170.000,41.000 C 168.005,50.951 168.096,50.903 167.000,61.000" stroke-width="2.837" stroke="black" fill="none" stroke-linecap="round"></path><path d="M 167.000,61.000 C 166.250,70.994 166.005,70.951 166.000,81.000" stroke-width="2.654" stroke="black" fill="none" stroke-linecap="round"></path><path d="M 166.000,81.000 C 166.000,91.000 165.750,90.994 166.000,101.000" stroke-width="2.544" stroke="black" fill="none" stroke-linecap="round"></path><path d="M 166.000,101.000 C 165.784,109.005 166.000,109.000 166.000,117.000" stroke-width="2.782" stroke="black" fill="none" stroke-linecap="round"></path><path d="M 166.000,117.000 C 166.233,127.520 166.284,127.505 167.000,138.000" stroke-width="2.526" stroke="black" fill="none" stroke-linecap="round"></path><path d="M 167.000,138.000 C 168.000,148.000 167.733,148.020 169.000,158.000" stroke-width="2.562" stroke="black" fill="none" stroke-linecap="round"></path><path d="M 169.000,158.000 C 169.500,163.000 169.500,163.000 170.000,168.000" stroke-width="3.215" stroke="black" fill="none" stroke-linecap="round"></path><path d="M 170.000,168.000 C 170.474,173.003 170.500,173.000 171.000,178.000" stroke-width="3.433" stroke="black" fill="none" stroke-linecap="round"></path><path d="M 171.000,178.000 C 171.402,182.514 171.474,182.503 172.000,187.000" stroke-width="3.543" stroke="black" fill="none" stroke-linecap="round"></path><path d="M 131.000,124.000 C 134.000,124.000 134.000,124.000 137.000,124.000" stroke-width="5.403" stroke="black" fill="none" stroke-linecap="round"></path><path d="M 137.000,124.000 C 141.000,124.000 141.000,124.000 145.000,124.000" stroke-width="4.798" stroke="black" fill="none" stroke-linecap="round"></path><path d="M 145.000,124.000 C 148.052,124.421 148.000,124.000 151.000,124.000" stroke-width="4.331" stroke="black" fill="none" stroke-linecap="round"></path><path d="M 151.000,124.000 C 155.162,123.439 155.052,123.421 159.000,122.000" stroke-width="4.429" stroke="black" fill="none" stroke-linecap="round"></path><path d="M 159.000,122.000 C 163.065,120.119 163.162,120.439 167.000,118.000" stroke-width="4.427" stroke="black" fill="none" stroke-linecap="round"></path><path d="M 167.000,118.000 C 169.617,116.668 169.565,116.619 172.000,115.000" stroke-width="4.696" stroke="black" fill="none" stroke-linecap="round"></path><path d="M 172.000,115.000 C 174.383,112.832 174.617,113.168 177.000,111.000" stroke-width="4.706" stroke="black" fill="none" stroke-linecap="round"></path><path d="M 177.000,111.000 C 179.716,109.777 179.383,109.332 182.000,108.000" stroke-width="4.773" stroke="black" fill="none" stroke-linecap="round"></path><path d="M 182.000,108.000 C 184.000,106.000 184.216,106.277 186.000,104.000" stroke-width="5.051" stroke="black" fill="none" stroke-linecap="round"></path><path d="M 186.000,104.000 C 189.771,99.543 188.000,102.000 190.000,100.000" stroke-width="5.182" stroke="black" fill="none" stroke-linecap="round"></path><path d="M 190.000,100.000 C 188.136,102.875 190.271,100.543 187.000,106.000" stroke-width="5.376" stroke="black" fill="none" stroke-linecap="round"></path><path d="M 187.000,106.000 C 185.027,109.298 186.136,108.375 186.000,111.000" stroke-width="5.041" stroke="black" fill="none" stroke-linecap="round"></path><path d="M 186.000,111.000 C 189.079,113.720 187.027,112.798 191.000,113.000" stroke-width="5.273" stroke="black" fill="none" stroke-linecap="round"></path><path d="M 191.000,113.000 C 192.500,110.500 193.079,112.220 194.000,108.000" stroke-width="4.949" stroke="black" fill="none" stroke-linecap="round"></path><path d="M 194.000,108.000 C 195.332,103.000 195.500,105.500 197.000,103.000" stroke-width="4.987" stroke="black" fill="none" stroke-linecap="round"></path><path d="M 197.000,103.000 C 198.876,107.735 198.832,103.000 201.000,108.000" stroke-width="5.228" stroke="black" fill="none" stroke-linecap="round"></path><path d="M 201.000,108.000 C 203.000,106.000 202.876,108.235 205.000,104.000" stroke-width="5.297" stroke="black" fill="none" stroke-linecap="round"></path><path d="M 205.000,104.000 C 206.633,100.789 207.000,102.000 209.000,100.000" stroke-width="5.401" stroke="black" fill="none" stroke-linecap="round"></path><path d="M 209.000,100.000 C 211.500,101.000 211.133,99.289 214.000,101.000" stroke-width="5.423" stroke="black" fill="none" stroke-linecap="round"></path><path d="M 214.000,101.000 C 216.500,100.000 216.500,101.000 219.000,100.000" stroke-width="5.530" stroke="black" fill="none" stroke-linecap="round"></path><path d="M 219.000,100.000 C 222.136,102.036 221.500,100.000 224.000,101.000" stroke-width="5.565" stroke="black" fill="none" stroke-linecap="round"></path><path d="M 224.000,101.000 C 226.187,98.108 226.636,99.536 228.000,95.000" stroke-width="5.103" stroke="black" fill="none" stroke-linecap="round"></path><path d="M 228.000,95.000 C 229.613,89.277 229.687,92.108 231.000,89.000" stroke-width="4.993" stroke="black" fill="none" stroke-linecap="round"></path><path d="M 231.000,89.000 C 231.250,93.250 232.113,88.777 233.000,94.000" stroke-width="5.345" stroke="black" fill="none" stroke-linecap="round"></path><path d="M 233.000,94.000 C 236.079,93.680 234.750,94.750 238.000,92.000" stroke-width="5.431" stroke="black" fill="none" stroke-linecap="round"></path><path d="M 238.000,92.000 C 239.472,89.483 240.079,90.180 241.000,87.000" stroke-width="4.975" stroke="black" fill="none" stroke-linecap="round"></path><path d="M 241.000,87.000 C 243.905,83.191 243.472,82.983 246.000,79.000" stroke-width="4.516" stroke="black" fill="none" stroke-linecap="round"></path><path d="M 246.000,79.000 C 247.000,76.000 247.405,76.191 248.000,73.000" stroke-width="4.840" stroke="black" fill="none" stroke-linecap="round"></path><path d="M 248.000,73.000 C 249.132,70.038 249.000,70.000 250.000,67.000" stroke-width="4.244" stroke="black" fill="none" stroke-linecap="round"></path><path d="M 250.000,67.000 C 251.073,63.016 251.132,63.038 252.000,59.000" stroke-width="4.438" stroke="black" fill="none" stroke-linecap="round"></path><path d="M 252.000,59.000 C 252.789,56.529 252.573,56.516 253.000,54.000" stroke-width="4.360" stroke="black" fill="none" stroke-linecap="round"></path><path d="M 253.000,54.000 C 253.000,50.500 253.289,50.529 253.000,47.000" stroke-width="4.536" stroke="black" fill="none" stroke-linecap="round"></path><path d="M 253.000,47.000 C 253.527,41.264 253.000,44.000 253.000,41.000" stroke-width="4.705" stroke="black" fill="none" stroke-linecap="round"></path><path d="M 253.000,41.000 C 251.329,43.371 252.527,40.764 251.000,46.000" stroke-width="5.253" stroke="black" fill="none" stroke-linecap="round"></path><path d="M 251.000,46.000 C 251.000,51.500 250.329,51.371 251.000,57.000" stroke-width="4.532" stroke="black" fill="none" stroke-linecap="round"></path><path d="M 251.000,57.000 C 251.000,61.000 251.000,61.000 251.000,65.000" stroke-width="4.013" stroke="black" fill="none" stroke-linecap="round"></path><path d="M 251.000,65.000 C 251.000,68.500 251.000,68.500 251.000,72.000" stroke-width="4.039" stroke="black" fill="none" stroke-linecap="round"></path><path d="M 251.000,72.000 C 251.000,79.000 251.000,79.000 251.000,86.000" stroke-width="3.320" stroke="black" fill="none" stroke-linecap="round"></path><path d="M 251.000,86.000 C 251.244,96.006 251.000,96.000 251.000,106.000" stroke-width="2.768" stroke="black" fill="none" stroke-linecap="round"></path><path d="M 251.000,106.000 C 250.567,116.504 250.744,116.506 250.000,127.000" stroke-width="2.523" stroke="black" fill="none" stroke-linecap="round"></path><path d="M 250.000,127.000 C 249.267,134.993 249.567,135.004 249.000,143.000" stroke-width="2.717" stroke="black" fill="none" stroke-linecap="round"></path><path d="M 249.000,143.000 C 249.367,150.036 248.767,149.993 249.000,157.000" stroke-width="2.964" stroke="black" fill="none" stroke-linecap="round"></path><path d="M 275.000,15.000 C 275.176,18.008 275.000,18.000 275.000,21.000" stroke-width="5.377" stroke="black" fill="none" stroke-linecap="round"></path><path d="M 275.000,21.000 C 274.524,26.502 274.676,26.508 274.000,32.000" stroke-width="4.507" stroke="black" fill="none" stroke-linecap="round"></path><path d="M 274.000,32.000 C 273.476,36.998 273.524,37.002 273.000,42.000" stroke-width="3.780" stroke="black" fill="none" stroke-linecap="round"></path><path d="M 273.000,42.000 C 272.459,47.497 272.476,47.498 272.000,53.000" stroke-width="3.513" stroke="black" fill="none" stroke-linecap="round"></path><path d="M 272.000,53.000 C 271.296,59.492 271.459,59.497 271.000,66.000" stroke-width="3.276" stroke="black" fill="none" stroke-linecap="round"></path><path d="M 271.000,66.000 C 271.000,70.500 270.796,70.492 271.000,75.000" stroke-width="3.496" stroke="black" fill="none" stroke-linecap="round"></path><path d="M 271.000,75.000 C 271.000,79.500 271.000,79.500 271.000,84.000" stroke-width="3.621" stroke="black" fill="none" stroke-linecap="round"></path><path d="M 271.000,84.000 C 271.232,87.514 271.000,87.500 271.000,91.000" stroke-width="3.868" stroke="black" fill="none" stroke-linecap="round"></path><path d="M 271.000,91.000 C 270.251,94.984 270.732,95.014 270.000,99.000" stroke-width="3.831" stroke="black" fill="none" stroke-linecap="round"></path><path d="M 270.000,99.000 C 270.000,103.000 269.751,102.984 270.000,107.000" stroke-width="3.875" stroke="black" fill="none" stroke-linecap="round"></path><path d="M 270.000,107.000 C 270.000,111.500 270.000,111.500 270.000,116.000" stroke-width="3.678" stroke="black" fill="none" stroke-linecap="round"></path></svg>